<?xml version="1.0" encoding="UTF-8" standalone="no"?>
<!-- Generator: Adobe Illustrator 22.0.1, SVG Export Plug-In . SVG Version: 6.00 Build 0)  -->

<svg
   viewBox="0 0 284.51624 177.99994"
   class="styles__SVG-sc-1g923b5-0 liJZbW"
   version="1.1"
   id="svg100"
   sodipodi:docname="01086dd595e0182c10efdded296e026a.svg"
   width="284.51624"
   height="177.99994"
   xmlns:inkscape="http://www.inkscape.org/namespaces/inkscape"
   xmlns:sodipodi="http://sodipodi.sourceforge.net/DTD/sodipodi-0.dtd"
   xmlns:xlink="http://www.w3.org/1999/xlink"
   xmlns="http://www.w3.org/2000/svg"
   xmlns:svg="http://www.w3.org/2000/svg">
  <sodipodi:namedview
     id="namedview102"
     pagecolor="#ffffff"
     bordercolor="#666666"
     borderopacity="1.0"
     inkscape:pageshadow="2"
     inkscape:pageopacity="0.0"
     inkscape:pagecheckerboard="0" />
  <defs
     id="defs4">
    <path
       d="M 0,0 H 285 V 178 H 0 Z"
       id="a" />
    <path
       d="M 1.869,4.922 0,24.083 71.477,17.54 56.839,0"
       id="c" />
  </defs>
  <g
     fill="none"
     fill-rule="evenodd"
     id="g98"
     transform="translate(-3.8792497e-4,-6.4170128e-5)">
    <mask
       fill="#ffffff"
       id="b">
      <use
         xlink:href="#a"
         id="use6"
         x="0"
         y="0"
         width="100%"
         height="100%" />
    </mask>
    <path
       d="m 250.91,113.986 2.182,-3.332 -1.625,-3.85 -2.017,-0.158 c 0,0 -5.988,2.09 -13.653,4.326 l -29.382,4.178 c 0,0 -13.784,55.029 -12.667,69.052 0.103,1.284 3.962,2.235 5.587,2.845 7.177,2.692 38.406,5.617 44.094,5.617 5.687,0 22.546,1.135 23.254,-5.82 2.835,-27.877 -10.325,-60.705 -15.772,-72.858"
       fill="#4acc9a"
       mask="url(#b)"
       id="path9" />
    <path
       d="m 198.654,149.232 c -2.18,10.59 -4.13,21.417 -4.758,28.825 l 73.152,-1.555 c -0.255,-10.399 -2.234,-21.033 -4.804,-30.695 z"
       fill="#57dcad"
       mask="url(#b)"
       id="path11" />
    <path
       d="m 111.01,96.198 76.26,51.662 -5.202,7.684 -76.26,-51.662 z"
       fill="#33374b"
       mask="url(#b)"
       id="path13" />
    <path
       d="m 152.837,116.569 96.222,65.185 -12.595,18.604 -96.222,-65.186 z"
       fill="#585e7d"
       mask="url(#b)"
       id="path15" />
    <path
       d="m 261.592,113.622 c 8.756,5.08 18.973,13.445 22.107,25.86 3.984,15.783 -6.717,30.064 -29.357,47.56 l 0.097,-0.075 c -6.573,8.56 -17.861,14.118 -17.42,9.83 0.188,-1.814 2.337,-4.465 5.019,-7.122 a 1.436,1.436 0 0 1 -0.797,-0.674 l -0.259,-0.487 c -0.414,-0.777 -0.01,-1.8 0.902,-2.285 l 5.896,-3.652 c 0.825,-0.579 2.774,-1.798 3.995,-1.345 16.602,-15.406 22.77,-27.79 19.892,-39.19 -2.275,-9.012 -10.36,-15.313 -17.242,-19.184 z m -133.236,7.007 c 1.465,-0.24 3.723,0.668 6.232,2.117 0.036,-0.037 0.075,-0.07 0.117,-0.103 l 0.438,-0.336 c 0.698,-0.536 1.773,-0.307 2.402,0.512 l 4.154,4.735 0.434,0.396 a 141.343,141.343 0 0 1 7.596,6.334 c 11.235,8.447 20.54,11 30.068,9.01 4.652,-0.972 8.714,-3.18 12.196,-5.957 3.814,1.198 8.385,3.904 9.195,7.496 -5.048,4.33 -11.23,7.92 -18.645,9.48 -3.205,0.675 -6.47,0.94 -9.787,0.796 -13.757,-0.597 -18.652,-5.665 -34.007,-20.204 -8.342,-5.52 -14.227,-13.647 -10.393,-14.276 z m 110.349,-62.779 3.227,17.526 a 4.875,4.875 0 0 1 6.187,4.283 4.873,4.873 0 0 1 -4.134,5.225 l 5.718,26.467 -42.923,4.811 0.026,-26.413 a 4.803,4.803 0 0 1 -4.443,-4.387 4.807,4.807 0 0 1 4.387,-5.192 l 0.066,-0.002 -0.128,-16.691 z"
       fill="#f8e0bb"
       mask="url(#b)"
       id="path17" />
    <g
       mask="url(#b)"
       id="g69">
      <path
         d="m 152.429,116.364 94.732,64.18 -20.006,14.237 -87.703,-59.263 z"
         fill="#585e7d"
         id="path19" />
      <path
         d="m 134.82,69.796 c 0,36.508 -29.609,66.105 -66.133,66.105 -36.524,0 -66.133,-29.597 -66.133,-66.105 0,-36.51 29.609,-66.106 66.133,-66.106 36.524,0 66.133,29.596 66.133,66.106"
         fill="#ffffff"
         id="path21" />
      <path
         d="m 29.993,124.742 c 31.217,21.132 73.66,12.967 94.802,-18.237 C 145.935,75.302 137.767,32.875 106.55,11.744 75.333,-9.388 32.889,-1.223 11.749,29.98 -9.391,61.184 -1.224,103.61 29.993,124.742 m 3.849,-5.681 C 5.81,100.084 -1.552,61.849 17.432,33.828 36.417,5.808 74.668,-1.55 102.701,17.425 c 28.033,18.977 35.394,57.212 16.41,85.233 -18.985,28.02 -57.236,35.379 -85.27,16.403"
         fill="#33374b"
         id="path23" />
      <path
         d="M 115.777,72.373 114.134,60.48 44.033,62.404 c 0,0 -12.37,1.891 -23.425,7.342 -0.883,0.76 -0.99,1.44 -1.129,2.292 -0.045,0.28 -0.08,0.563 -0.117,0.846 -0.303,1.376 -0.969,4.416 0.281,5.76 1.832,1.97 0.647,0.767 2.906,3.4 0.071,0.082 0.191,0.08 0.288,0.116 l 4.906,-0.012 a 8.346,8.346 0 0 1 8.337,-8.778 8.347,8.347 0 0 1 8.338,8.734 L 91.083,81.98 c -0.004,-0.105 -0.008,-0.208 -0.008,-0.314 0,-4.602 3.733,-8.333 8.337,-8.333 4.605,0 8.338,3.731 8.338,8.333 0,0.09 -0.004,0.18 -0.007,0.27 l 0.528,-0.002 7.472,-2.392 1.478,-4.43 z"
         fill="#4f5467"
         id="path25" />
      <path
         d="m 27.732,81.715 a 8.347,8.347 0 0 1 5.4,-7.807 c -8.475,0.326 -14.078,0.705 -14.153,1.138 -0.56,3.22 1.31,4.365 3.57,6.997 0.071,0.083 0.192,0.081 0.289,0.118 l 4.905,-0.013 a 8.907,8.907 0 0 1 -0.01,-0.433 m 88.044,-9.342 c 0,0 -6.193,0.056 -15.442,0.168 0.028,0.01 0.054,0.024 0.082,0.035 l -6.178,0.049 0.015,-0.007 -1.23,0.016 -5.471,0.043 0.002,0.032 c -15.76,0.224 -34.996,0.56 -49.08,1.012 a 8.347,8.347 0 0 1 5.943,8.383 l 44.787,-0.12 -0.016,-0.087 h 1.891 c -0.002,-0.077 -0.005,-0.153 -0.005,-0.23 a 8.336,8.336 0 0 1 8.337,-8.334 c 4.605,0 8.338,3.731 8.338,8.333 0,0.09 -0.004,0.18 -0.007,0.27 l 0.528,-0.002 7.472,-2.392 1.478,-4.43 z m -7.612,-20.006 c -4.939,-5.051 -5.068,-6.395 -9.251,-6.413 -3.16,-0.013 -3.884,-0.284 -7.047,-0.271 -4.329,0.016 -8.664,0.006 -12.99,0.167 -4.297,0.16 -8.607,0.326 -12.89,0.724 -3.075,0.286 -5.76,0.775 -6.002,0.855 -5.01,1.67 -19.272,18.103 -19.272,18.103 l 33.592,-0.41 39.848,-4.642 c 0,0 -1.232,-3.25 -5.988,-8.113"
         fill="#33374b"
         id="path27" />
      <path
         d="m 103.175,55.352 c -6.32,-8.142 -7.534,-8.818 -8.92,-8.867 -3.382,-0.193 -4.76,-0.012 -8.145,-0.012 -4.192,-10e-4 -21.17,0.578 -25.045,2.144 -4.872,1.97 -7.444,6.07 -10.712,10.331 -0.488,0.636 -1.296,1.361 -1.636,2.124 0,0 -0.829,1.861 0.825,2.023 0,0 37.014,-2.833 49.193,-4.1 1.896,-0.197 3.668,-2.094 4.317,-2.933 0.105,-0.22 0.152,-0.463 0.123,-0.71"
         fill="#33374b"
         id="path29" />
      <path
         d="m 46.543,61.126 c 3.668,-4.777 9.773,-10.084 11.042,-11.164 0.771,-0.657 0.725,-1.227 0.57,-1.573 -4.082,2.687 -10.714,9.689 -14.516,13.866 1.236,0.15 2.904,-1.129 2.904,-1.129"
         fill="#00384b"
         id="path31" />
      <path
         d="m 62.847,48.67 c 0,0 -3.172,0.705 -5.357,2.818 -2.184,2.114 -7.777,10.025 -7.777,10.025 0,0 -1.334,1.361 0.79,1.022 0.899,-0.144 9.412,-0.912 18.942,-1.75 A 60.337,60.337 0 0 1 71.75,47.726 c -3.358,0.249 -6.493,0.56 -8.903,0.944 m 10.829,-1.078 c -0.4,3.238 -0.831,7.952 -0.774,12.888 7.475,-0.655 15.084,-1.313 19.784,-1.718 -2.007,-5.307 -3.758,-9.23 -4.992,-11.796 -3.951,0.107 -9.115,0.304 -14.018,0.626 m 28.496,7.454 c -0.282,-0.74 -5.78,-8.102 -7.928,-8.172 -0.573,-0.019 -2.409,-0.005 -4.97,0.053 a 285.89,285.89 0 0 1 5.94,11.617 l 2.138,-0.183 c 0,0 1.296,-0.04 2.283,-0.673 0.987,-0.635 2.819,-1.903 2.537,-2.642"
         fill="#ffffff"
         id="path33" />
      <path
         d="m 27.834,78.348 c 0.04,-0.513 0.084,-1.025 0.116,-1.537 h -9.426 a 0.836,0.836 0 0 0 -0.294,0.074 0.64,0.64 0 0 0 -0.29,0.326 l 0.04,2.053 c 0,0 1.948,2.922 3.29,3.352 1.34,0.43 2.23,0.306 2.23,0.306 l 3.89,0.017 c 0.005,-0.236 0.392,-3.91 0.444,-4.591"
         fill="#1f1e1e"
         id="path35" />
      <path
         d="m 25.713,76.81 h -7.19 a 0.876,0.876 0 0 0 -0.293,0.075 0.64,0.64 0 0 0 -0.29,0.326 l 0.035,1.814 c 0,0 7.706,-1.702 7.738,-2.214"
         fill="#212221"
         id="path37" />
      <path
         d="m 47.753,61.267 -1.864,1.24 c 0,0 -0.85,0.598 -0.23,1.241 0,0 0.29,0.338 1.072,0.355 0.783,0.017 2.407,-0.355 2.407,-0.355 z"
         fill="#252839"
         id="path39" />
      <path
         d="m 51.017,60.772 c -0.379,-1.053 -2.303,-0.906 -2.306,-0.906 -0.824,0.061 -1.447,0.894 -1.914,1.78 -0.539,1.02 -0.138,3.107 0.875,2.914 1.16,-0.224 0.717,-0.059 2.597,-0.61 0.49,-0.142 1.208,-1.894 0.748,-3.178"
         fill="#4f5467"
         id="path41" />
      <path
         d="m 51.017,60.772 a 0.983,0.983 0 0 0 -0.14,-0.26 c 0.02,0.494 -0.089,0.986 -0.431,1.37 -0.428,0.479 -1.05,0.729 -1.657,0.896 -0.365,0.102 -0.723,0.23 -1.094,0.303 -0.297,0.06 -0.7,0.139 -0.975,-0.031 a 0.816,0.816 0 0 1 -0.16,-0.13 c 0.04,0.898 0.441,1.768 1.112,1.64 1.16,-0.224 0.717,-0.059 2.597,-0.61 0.49,-0.142 1.208,-1.894 0.748,-3.178"
         fill="#33374b"
         id="path43" />
      <path
         d="m 102.92,47.011 c -1.164,0.03 -2.01,0.326 -1.523,1.25 l 8.95,10.26 c 0,0 1.616,2.297 3.212,0.758 -0.76,-1.364 -2.36,-3.809 -5.394,-6.912 -2.707,-2.768 -3.968,-4.423 -5.245,-5.356"
         fill="#00384b"
         id="path45" />
      <path
         d="m 24.025,79.003 c 0.952,-0.075 1.67,0.597 1.602,1.502 -0.068,0.905 -0.896,1.7 -1.847,1.775 -0.952,0.075 -3.111,-0.484 -3.044,-1.389 0.068,-0.904 2.337,-1.813 3.289,-1.888"
         fill="#212221"
         id="path47" />
      <path
         d="m 23.831,79.203 c 0.899,-0.07 1.575,0.564 1.511,1.417 -0.064,0.853 -0.844,1.603 -1.742,1.674 -0.898,0.071 -2.934,-0.456 -2.87,-1.31 0.063,-0.854 2.203,-1.71 3.101,-1.78"
         fill="#000000"
         id="path49" />
      <path
         d="m 48.034,59.302 c 3.641,-4.225 8.442,-8.396 9.55,-9.34 0.772,-0.658 0.726,-1.227 0.572,-1.573 -3.516,2.315 -8.923,7.828 -12.785,11.982 0.882,-0.37 1.77,-0.727 2.663,-1.07 M 62.85,54.882 A 154.405,154.405 0 0 1 70.383,53.4 59.16,59.16 0 0 1 71.75,47.727 c -3.358,0.248 -6.493,0.559 -8.903,0.944 0,0 -3.172,0.704 -5.357,2.817 -1.163,1.126 -3.294,3.896 -5.031,6.24 A 109.45,109.45 0 0 1 62.85,54.882 m 26.789,-3.651 a 123.695,123.695 0 0 0 -1.945,-4.265 c -3.95,0.107 -9.115,0.304 -14.018,0.626 a 109.152,109.152 0 0 0 -0.527,5.359 c 5.464,-0.838 10.976,-1.4 16.49,-1.72 m 6.387,-0.265 c 1.019,-0.025 2.038,-0.042 3.059,-0.051 -1.719,-2.014 -3.73,-4.005 -4.841,-4.041 -0.573,-0.019 -2.41,-0.005 -4.97,0.053 a 325.47,325.47 0 0 1 2.226,4.206 c 1.509,-0.073 3.018,-0.129 4.526,-0.167"
         fill="#ffffff"
         id="path51" />
      <path
         d="m 103.728,50.933 c 1.048,0.018 2.096,0.045 3.143,0.082 -1.854,-1.972 -2.898,-3.234 -3.952,-4.003 -1.163,0.028 -2.01,0.325 -1.522,1.249 z"
         fill="#4da88a"
         id="path53" />
      <path
         d="m 113.733,73.556 1.799,-0.105 c 0,0 0.492,-0.035 0.668,0.281 l 0.6,1.216 c 0,0 0.053,0.193 -0.247,0.193 h -1.78 c 0,0 -0.281,0.018 -0.493,-0.14 -0.21,-0.16 -0.81,-1.233 -0.81,-1.233 0,0 -0.1,-0.221 0.263,-0.212 M 112.45,62.125 c -0.404,0.248 -0.794,0.626 -1.005,1.085 -0.217,0.473 -0.241,1.007 -0.194,1.525 0.04,0.44 0.115,0.876 0.18,1.312 0.065,0.442 0.134,0.885 0.218,1.323 0.077,0.399 0.157,0.801 0.284,1.185 0.084,0.252 0.183,0.507 0.38,0.678 0.248,0.216 0.56,0.342 0.849,0.475 0.373,0.171 0.75,0.33 1.131,0.477 0.348,0.135 1.216,0.604 1.216,0.386 l -1.157,-9.26 -0.243,-0.228 -0.079,0.041 a 6.976,6.976 0 0 0 -0.54,0.316 c -0.35,0.224 -0.687,0.469 -1.04,0.685"
         fill="#6ec4a3"
         id="path55" />
      <path
         d="m 43.162,81.715 a 7.08,7.08 0 0 1 -7.082,7.08 7.08,7.08 0 1 1 0,-14.159 7.081,7.081 0 0 1 7.082,7.08"
         fill="#6ec3a3"
         id="path57" />
      <path
         d="m 39.558,81.715 a 3.478,3.478 0 1 1 -6.955,-0.001 3.478,3.478 0 0 1 6.955,0.001"
         fill="#278464"
         id="path59" />
      <path
         d="m 106.639,81.715 c 0,3.91 -3.171,7.08 -7.082,7.08 -3.911,0 -7.082,-3.17 -7.082,-7.08 0,-3.91 3.17,-7.079 7.082,-7.079 a 7.081,7.081 0 0 1 7.082,7.08"
         fill="#6ec3a3"
         id="path61" />
      <path
         d="m 103.035,81.715 a 3.478,3.478 0 1 1 -6.955,-0.001 3.478,3.478 0 0 1 6.955,0.001"
         fill="#278464"
         id="path63" />
      <path
         d="m 26.05,68.354 c -1.044,-0.055 -1.97,-0.08 -2.936,0.371 -0.912,0.427 -2.257,0.95 -2.723,1.435 a 3.36,3.36 0 0 0 -0.41,0.697 9.4,9.4 0 0 0 -0.368,2.31 c 0.03,0.24 0.084,0.448 0.161,0.606 0.282,0.576 3.361,0.121 5.428,-1.566 0.659,-0.385 1.9,-3.785 0.849,-3.853"
         fill="#6ec4a3"
         id="path65" />
      <path
         d="m 66.839,63.03 1.912,0.02 c 0,0 0.377,0.017 0.222,0.415 -0.154,0.4 -0.198,0.471 -0.198,0.471 0,0 -0.046,0.208 -0.416,0.274 -0.37,0.066 -2.587,0.161 -2.587,0.161 0,0 -0.313,0.037 -0.791,-0.271 -0.479,-0.308 -0.45,-0.825 -0.285,-0.946 0,0 -0.002,-0.055 0.314,-0.113 0.317,-0.057 1.829,-0.01 1.829,-0.01"
         fill="#f6ddba"
         id="path67" />
    </g>
    <path
       d="m 201.546,144.611 c 0,0 -10.278,-4.673 -11.213,-9.814 0,0 13.476,-18.265 16.081,-19.647 2.606,-1.382 0,0 0,0 l 4.008,7.03 z"
       fill="#4acc9a"
       mask="url(#b)"
       id="path71" />
    <g
       mask="url(#b)"
       id="g80">
      <g
         transform="translate(194.07,113.986)"
         id="g78">
        <mask
           fill="#ffffff"
           id="d">
          <use
             xlink:href="#c"
             id="use73"
             x="0"
             y="0"
             width="100%"
             height="100%" />
        </mask>
        <path
           d="m 56.84,0 2.181,-3.331 -1.625,-3.85 -2.017,-0.158 c 0,0 -5.989,2.089 -13.653,4.325 L 12.344,1.164 c 0,0 -13.784,55.03 -12.667,69.052 0.103,1.285 3.962,2.236 5.587,2.845 7.177,2.692 38.406,5.618 44.094,5.618 5.688,0 22.547,1.134 23.254,-5.821 C 75.447,44.982 62.287,12.154 56.84,0"
           fill="#57dcad"
           mask="url(#d)"
           id="path76" />
      </g>
    </g>
    <path
       d="m 217.833,76.86 a 2.188664,2.188664 0 1 1 -4.362,0.366 2.19,2.19 0 1 1 4.362,-0.365 m 17.831,-2.185 a 2.1891205,2.1891205 0 1 1 -4.363,0.365 2.1890789,2.1890789 0 0 1 4.363,-0.364"
       fill="#164375"
       mask="url(#b)"
       id="path82" />
    <path
       d="m 211.804,75.17 c 0,0 2.833,-2.14 4.823,-2.433 l -1.197,-1.166 c 0,0 -2.924,2.019 -3.7,2.717 -0.776,0.699 0.074,0.881 0.074,0.881"
       fill="#dfbd2b"
       mask="url(#b)"
       id="path84" />
    <path
       d="m 241.546,73.562 c 0,0 2.325,-5.717 0.313,-10.828 0,0 14.93,-17.094 -2.81,-27.222 0,0 0.7,2.054 -0.477,6.905 l -8.826,-4.54 c 0,0 3.933,2.838 4.94,8.562 0,0 -4.369,-1.746 -10.266,-2.835 -5.898,-1.089 -24.112,2.024 -25.284,13.21 -1.174,11.187 1.48,9.102 1.48,9.102 L 188.96,61.364 c 0,0 8.144,9.794 12.192,10.944 4.101,1.165 5.586,6.922 5.586,6.922 0,0 4.136,-9.919 3.609,-16.21 0,0 13.228,3.83 24.218,0.854 l 3.277,1.309 c 0,0 3.246,3.573 3.704,8.38"
       fill="#191b2e"
       mask="url(#b)"
       id="path86" />
    <path
       d="m 229.292,85.132 c -2.057,3.006 -6.131,3.806 -9.082,1.785 a 1.054,1.054 0 1 1 1.19,-1.739 c 1.992,1.365 4.753,0.81 6.153,-1.237 a 1.054,1.054 0 1 1 1.739,1.191"
       fill="#164375"
       mask="url(#b)"
       id="path88" />
    <path
       d="m 236.491,72.205 c 0,0 -3.149,-1.636 -5.16,-1.594 l 0.986,-1.35 c 0,0 3.219,1.504 4.1,2.064 0.882,0.56 0.074,0.88 0.074,0.88"
       fill="#dfbd2b"
       mask="url(#b)"
       id="path90" />
    <path
       d="m 251.467,106.805 30.176,14.298 c 0,0 -15.758,15.093 -17.496,19.303 0,0 -13.803,-10.395 -18.064,-15.579 -8.466,-10.298 -1.217,-17.55 5.384,-18.022"
       fill="#4acc9a"
       mask="url(#b)"
       id="path92" />
    <path
       d="m 206.415,115.15 c 0,0 36.801,-4.187 42.253,-7.922 l -1.494,5.977 -40.85,3.51 0.09,-1.565 z"
       fill="#4acc9a"
       mask="url(#b)"
       id="path94" />
    <path
       d="m 221.219,118.596 2.002,-0.425 c 0,0 12.205,29.807 27.923,38.918 l 1.723,13.64 -15.967,-1.97 c 0,0 -6.542,-10.615 -15.681,-50.163"
       fill="#636e89"
       mask="url(#b)"
       id="path96" />
  </g>
</svg>
